<svg width="45" height="46" viewBox="0 0 45 46" fill="none" xmlns="http://www.w3.org/2000/svg">
<path d="M15.8364 32.5682H38.5215C39.3442 32.5682 40.064 31.9176 40.064 31.023C40.064 30.1284 39.3442 29.4778 38.5215 29.4778H16.2271C15.1577 29.4778 14.5201 28.7662 14.3556 27.6683L14.0471 25.6554H38.6037C41.5037 25.6554 42.9845 23.9069 43.4164 21.0808L44.9177 11.0979C44.9589 10.8336 45 10.5286 45 10.3456C45 9.34937 44.2802 8.67843 43.1079 8.67843H11.5379L11.1883 6.36061C10.9826 4.79507 10.4068 4.02246 8.35009 4.02246H1.58364C0.719835 4.02246 0 4.73407 0 5.588C0 6.46227 0.719835 7.17388 1.58364 7.17388H7.97989L11.0649 28.0546C11.4762 30.84 12.9776 32.5682 15.8364 32.5682ZM41.442 11.7485L40.1257 20.7351C39.9612 21.8534 39.3647 22.5447 38.2952 22.5447L13.5946 22.565L11.9904 11.7485H41.442ZM17.3995 42.0225C19.1888 42.0225 20.6284 40.5992 20.6284 38.81C20.6284 37.0412 19.1888 35.618 17.3995 35.618C15.5896 35.618 14.1499 37.0412 14.1499 38.81C14.1499 40.5992 15.5896 42.0225 17.3995 42.0225ZM35.5187 42.0225C37.3286 42.0225 38.7683 40.5992 38.7683 38.81C38.7683 37.0412 37.3286 35.618 35.5187 35.618C33.7294 35.618 32.2692 37.0412 32.2692 38.81C32.2692 40.5992 33.7294 42.0225 35.5187 42.0225Z" fill="#5BA015"/>
</svg>
