<svg width="24" height="19" viewBox="0 0 24 19" fill="none" xmlns="http://www.w3.org/2000/svg">
<path d="M19.3421 9.01802C21.7247 9.01802 23.7344 7.02651 23.7344 4.62577C23.7344 2.22504 21.752 0.233521 19.3421 0.233521C16.9414 0.233521 14.9499 2.22504 14.9499 4.62577C14.9499 7.04469 16.9414 9.01802 19.3421 9.01802ZM7.51123 14.5379H17.5416C17.8962 14.5379 18.2145 14.2469 18.2145 13.8468C18.2145 13.4467 17.8962 13.1557 17.5416 13.1557H7.67492C7.21114 13.1557 6.92924 12.8374 6.84739 12.3463L6.71099 11.446H17.5779C18.46 11.446 19.0511 11.0641 19.3603 10.3821L19.424 10.2184C16.2412 10.1911 13.7586 7.72672 13.7586 4.62577C13.7586 4.37115 13.7768 4.10743 13.8041 3.85281H5.61065L5.45606 2.81613C5.34694 2.11591 5.10141 1.77035 4.19204 1.77035H1.20021C0.827373 1.77035 0.5 2.08863 0.5 2.47057C0.5 2.8616 0.827373 3.17988 1.20021 3.17988H4.02835L5.3924 12.5191C5.57428 13.7649 6.23812 14.5379 7.51123 14.5379ZM19.3512 7.48119C19.042 7.48119 18.7692 7.26294 18.7692 6.93557V5.17139H17.1324C16.8323 5.17139 16.5867 4.92586 16.5867 4.62577C16.5867 4.32568 16.8323 4.08015 17.1324 4.08015H18.7692V2.31598C18.7692 1.9886 19.0329 1.77035 19.3512 1.77035C19.6604 1.77035 19.9332 1.9886 19.9332 2.31598V4.08015H21.561C21.8611 4.08015 22.1066 4.32568 22.1066 4.62577C22.1066 4.92586 21.8611 5.17139 21.561 5.17139H19.9332V6.93557C19.9332 7.26294 19.6604 7.48119 19.3512 7.48119ZM6.76555 17.3297C6.76555 18.1299 7.40211 18.7665 8.19326 18.7665C8.99351 18.7665 9.62097 18.1299 9.62097 17.3297C9.62097 16.5385 8.99351 15.9019 8.19326 15.9019C7.40211 15.9019 6.76555 16.5385 6.76555 17.3297ZM14.768 17.3297C14.768 18.1299 15.4136 18.7665 16.2139 18.7665C17.005 18.7665 17.6416 18.1299 17.6416 17.3297C17.6416 16.5385 17.005 15.9019 16.2139 15.9019C15.4136 15.9019 14.768 16.5385 14.768 17.3297Z" fill="white"/>
</svg>
