<svg width="34" height="34" viewBox="0 0 34 34" fill="none" xmlns="http://www.w3.org/2000/svg">
<circle cx="17" cy="17" r="17" fill="white"/>
<path d="M10.5763 12.7971L11.1221 24.2882C11.1936 25.7345 12.0346 26.4444 13.5108 26.4444H20.4981C21.9743 26.4444 22.8063 25.7345 22.8779 24.2882L23.4326 12.7971H24.2736C24.9088 12.7971 25.3651 12.3764 25.3651 11.754C25.3651 11.158 24.9088 10.7285 24.2736 10.7285H21.0707V9.93966C21.0707 8.45835 20.0508 7.55554 18.3062 7.55554H15.6938C13.9492 7.55554 12.9293 8.45835 12.9293 9.93966V10.7285H9.73535C9.10909 10.7285 8.63492 11.158 8.63492 11.754C8.63492 12.3764 9.10909 12.7971 9.73535 12.7971H10.5763ZM14.9423 9.89584C14.9512 9.47511 15.2644 9.18586 15.7385 9.18586H18.2704C18.7356 9.18586 19.0577 9.47511 19.0667 9.89584L19.0756 10.7285H14.9244L14.9423 9.89584ZM19.7734 24.1743C19.3887 24.1743 19.1025 23.8499 19.1114 23.4292L19.3798 14.5501C19.3887 14.1469 19.7019 13.8226 20.0687 13.8226C20.4534 13.8226 20.7397 14.1382 20.7307 14.5501L20.4444 23.438C20.4265 23.8675 20.1492 24.1743 19.7734 24.1743ZM14.2355 24.1743C13.8597 24.1743 13.5734 23.8675 13.5645 23.438L13.2872 14.5501C13.2782 14.1382 13.5645 13.8226 13.9313 13.8226C14.3071 13.8226 14.6202 14.1469 14.6291 14.5501L14.8975 23.4292C14.9065 23.8499 14.6202 24.1743 14.2355 24.1743ZM17.6799 23.4468C17.6799 23.8499 17.3668 24.1743 17 24.1743C16.6421 24.1743 16.329 23.8499 16.329 23.4468V14.5414C16.329 14.1469 16.6421 13.8226 17 13.8226C17.3668 13.8226 17.6799 14.1469 17.6799 14.5414V23.4468Z" fill="#737373"/>
</svg>
