<svg width="16" height="13" viewBox="0 0 16 13" fill="none" xmlns="http://www.w3.org/2000/svg">
<path d="M0 6.3457C0 6.57422 0.0966797 6.78516 0.272461 6.95215L5.7832 12.4541C5.95898 12.6211 6.15234 12.7002 6.36328 12.7002C6.81152 12.7002 7.1543 12.375 7.1543 11.9268C7.1543 11.707 7.06641 11.5049 6.92578 11.3555L5.0625 9.46582L2.39062 7.03125L4.37695 7.1543H14.7393C15.2139 7.1543 15.5479 6.82031 15.5479 6.3457C15.5479 5.87988 15.2139 5.5459 14.7393 5.5459H4.37695L2.39941 5.66895L5.0625 3.23438L6.92578 1.33594C7.0752 1.19531 7.1543 0.984375 7.1543 0.773438C7.1543 0.325195 6.81152 0 6.36328 0C6.15234 0 5.95898 0.0791016 5.76562 0.263672L0.272461 5.74805C0.0966797 5.91504 0 6.12598 0 6.3457Z" fill="#8BB425"/>
</svg>
