<svg width="14" height="15" viewBox="0 0 14 15" fill="none" xmlns="http://www.w3.org/2000/svg">
<path d="M5.73617 11.4723C6.95696 11.4723 8.08385 11.0889 9.01509 10.4394L12.4349 13.867C12.6149 14.0391 12.8496 14.1252 13.0922 14.1252C13.6244 14.1252 14 13.7261 14 13.2096C14 12.967 13.9217 12.7323 13.7418 12.5523L10.3454 9.14813C11.0576 8.1934 11.4723 7.01174 11.4723 5.73617C11.4723 2.58245 8.89771 0 5.73617 0C2.58245 0 0 2.58245 0 5.73617C0 8.88988 2.58245 11.4723 5.73617 11.4723ZM5.73617 10.1342C3.32588 10.1342 1.33818 8.14645 1.33818 5.73617C1.33818 3.32588 3.32588 1.33818 5.73617 1.33818C8.15428 1.33818 10.142 3.32588 10.142 5.73617C10.142 8.14645 8.15428 10.1342 5.73617 10.1342Z" fill="#737373"/>
</svg>
