<svg width="124" height="123" viewBox="0 0 124 123" fill="none" xmlns="http://www.w3.org/2000/svg">
<path d="M62 123C96.1183 123 124 95.2825 124 61.5C124 27.6568 96.1183 0 62 0C27.8817 0 0 27.6568 0 61.5C0 95.2825 27.9428 123 62 123ZM54.2959 93.0385C51.4832 93.0385 49.2209 91.7041 47.4477 89.642L30.8166 70.355C29.288 68.6568 28.7377 67.0799 28.7377 65.1997C28.7377 61.2574 32.0394 58.1035 35.9527 58.1035C38.2761 58.1035 39.9882 59.074 41.5779 60.8328L54.2347 75.6317L78.2643 37.9675C79.9763 35.2988 82.0552 33.9038 84.6844 33.9038C88.5365 33.9038 92.0217 36.7544 92.0217 40.6967C92.0217 42.213 91.4714 43.9112 90.432 45.4882L61.144 89.2781C59.5542 91.5828 57.0473 93.0385 54.2959 93.0385Z" fill="#5BA015"/>
</svg>
