<svg width="181" height="103" viewBox="0 0 181 103" fill="none" xmlns="http://www.w3.org/2000/svg">
<g clip-path="url(#clip0)">
<path d="M94.2901 53.227H80.7801L78.2101 59.5069H71.3101L84.3101 30.231H90.9601L103.96 59.5069H96.8901L94.2901 53.227ZM92.1701 48.0844L87.5601 36.8833L82.9401 48.0844H92.1701Z" fill="#018d13"/>
<path d="M128.83 37.004V55.743C128.83 64.1061 124.34 67.9505 116.28 67.9505C112.04 67.9505 107.93 66.9441 105.28 64.8609L107.85 60.1711C110.148 61.8442 112.914 62.7394 115.75 62.7273C120.32 62.7273 122.31 60.634 122.31 56.5783V55.5719C121.4 56.519 120.299 57.2595 119.081 57.7437C117.864 58.228 116.558 58.4448 115.25 58.3797C109.06 58.3797 104.07 54.0724 104.07 47.5007C104.07 40.929 109.07 36.6317 115.25 36.6317C116.647 36.5525 118.044 36.8023 119.328 37.3614C120.613 37.9204 121.75 38.7732 122.65 39.8521V37.004H128.83ZM122.43 47.5409C122.43 44.24 119.98 42.0259 116.57 42.0259C113.16 42.0259 110.67 44.24 110.67 47.5409C110.67 50.8419 113.16 53.066 116.57 53.066C119.98 53.066 122.43 50.8519 122.43 47.5409Z" fill="#018d13"/>
<path d="M134.32 28.49H140.8V59.517H134.32V28.49Z" fill="#018d13"/>
<path d="M144.64 48.2555C144.64 41.4825 149.83 36.6719 156.94 36.6719C164.05 36.6719 169.19 41.4825 169.19 48.2555C169.19 55.0285 164.04 59.839 156.94 59.839C149.84 59.839 144.64 55.0285 144.64 48.2555ZM162.64 48.2555C162.64 44.3708 160.19 42.0259 156.95 42.0259C153.71 42.0259 151.21 44.3708 151.21 48.2555C151.21 52.1401 153.71 54.485 156.95 54.485C160.19 54.485 162.63 52.1401 162.63 48.2555H162.64Z" fill="#018d13"/>
<path d="M96.8201 94.3783C96.8201 99.4102 93.0401 102.278 85.6801 102.278H71.8V73.0026H84.8501C91.5401 73.0026 95.2801 75.8506 95.2801 80.5706C95.3312 81.9242 94.9885 83.2635 94.2939 84.4238C93.5993 85.5841 92.5831 86.515 91.3701 87.1021C92.9876 87.4688 94.4233 88.4015 95.4213 89.734C96.4194 91.0665 96.9151 92.7123 96.8201 94.3783ZM75.9601 76.3941V85.7636H84.4801C88.7101 85.7636 91.1201 84.1735 91.1201 81.0738C91.1201 77.9741 88.7101 76.3941 84.4801 76.3941H75.9601ZM92.6201 94.0361C92.6201 90.6546 90.1301 89.1451 85.5201 89.1451H75.9601V98.9372H85.5201C90.1301 98.9372 92.6201 97.4276 92.6201 94.0361Z" fill="#018d13"/>
<path d="M121.45 92.5366H103.59C104.09 96.4212 107.2 99.0177 111.59 99.0177C112.78 99.0622 113.965 98.8458 115.063 98.3836C116.161 97.9213 117.146 97.2243 117.95 96.3407L120.15 98.9271C119.057 100.135 117.712 101.085 116.211 101.707C114.71 102.33 113.091 102.611 111.47 102.53C104.36 102.53 99.63 97.8 99.63 91.1981C99.63 84.5962 104.32 79.9064 110.63 79.9064C116.94 79.9064 121.52 84.5056 121.52 91.3188C121.54 91.661 121.49 92.1541 121.45 92.5366ZM103.59 89.6482H117.7C117.514 87.8942 116.69 86.2714 115.387 85.0921C114.084 83.9127 112.393 83.2603 110.64 83.2603C108.887 83.2603 107.196 83.9127 105.893 85.0921C104.59 86.2714 103.766 87.8942 103.58 89.6482H103.59Z" fill="#018d13"/>
<path d="M126.02 71.2514H130.02V102.278H126.02V71.2514Z" fill="#018d13"/>
<path d="M136.58 71.2514H140.58V102.278H136.58V71.2514Z" fill="#018d13"/>
<path d="M64.18 -55H0V102.399H64.18V-55Z" fill="#018d13"/>
<path d="M25.3401 101.554C23.3401 94.5695 22.6701 86.5687 24.4301 79.4132C25.7379 74.5881 27.9065 70.0425 30.8301 65.9981C32.4901 63.5827 34.4601 61.1775 35.6501 58.4602C31.3636 60.9518 27.5041 64.1223 24.2201 67.8498C21.7301 63.5425 19.5701 67.5781 18.8501 70.5671C18.394 72.4632 18.1062 74.3964 17.9901 76.3438C15.2301 72.9321 14.3301 77.9339 14.1501 80.1177C13.924 83.0215 14.1364 85.943 14.7801 88.7827C15.8423 93.7435 18.0178 98.3942 21.1401 102.379H25.7001C25.5001 101.956 25.3801 101.695 25.3401 101.554Z" fill="white"/>
<path d="M40.92 92.2045C40.68 93.08 38.1299 97.4981 38.5599 97.9006C40.7999 99.9637 46.5599 85.4415 46.9399 84.1534C49.1299 75.8507 49.2699 66.7026 46.0499 58.6515C41.8799 48.2555 30.9199 39.4697 32.0499 27.2823C29.3299 30.0398 28.6999 34.5887 28.7999 38.2721C28.8529 40.4013 29.1244 42.5192 29.6099 44.5922C29.8199 45.5181 30.82 46.9774 29.99 47.6114C28.6116 48.825 27.7608 50.534 27.6199 52.3716C26.6199 60.9863 33.78 68.2625 37.85 75.0657C39.9185 78.3121 41.1775 82.0131 41.5199 85.8542C41.6554 87.9896 41.4529 90.1331 40.92 92.2045Z" fill="white"/>
<path d="M32.09 89.4771C34.128 89.4771 35.78 87.8145 35.78 85.7636C35.78 83.7126 34.128 82.05 32.09 82.05C30.0521 82.05 28.4 83.7126 28.4 85.7636C28.4 87.8145 30.0521 89.4771 32.09 89.4771Z" fill="white"/>
<path d="M169.11 28.49H173.89V29.4964H172.17V33.5219H170.81V29.4964H169.11V28.49ZM179.45 33.5219V30.6336L177.93 32.9885H177.32L175.8 30.704V33.5219H174.53V28.49H175.64L177.64 31.5092L179.64 28.49H180.7V33.5219H179.45Z" fill="#018d13"/>
</g>
<defs>
<clipPath id="clip0">
<rect width="181" height="103" fill="white"/>
</clipPath>
</defs>
</svg>
